<?xml version="1.0" standalone="no"?>
<!DOCTYPE svg PUBLIC "-//W3C//DTD SVG 20010904//EN"
 "http://www.w3.org/TR/2001/REC-SVG-20010904/DTD/svg10.dtd">
<svg version="1.0" xmlns="http://www.w3.org/2000/svg"
 width="2180.000000pt" height="2180.000000pt" viewBox="0 0 2180.000000 2180.000000"
 preserveAspectRatio="xMidYMid meet">
<metadata>
Created by potrace 1.11, written by Peter Selinger 2001-2013
</metadata>
<g transform="translate(0.000000,2180.000000) scale(0.100000,-0.100000)"
fill="#000000" stroke="none">
<path d="M6684 13569 l0 -1579 225 2 225 3 0 1098 c0 603 1 1097 2 1097 2 0
72 -101 89 -129 6 -9 12 -18 15 -21 3 -3 33 -45 65 -95 33 -49 63 -92 66 -95
3 -3 61 -86 129 -185 68 -99 153 -223 189 -275 36 -52 89 -129 118 -170 28
-41 92 -133 140 -205 48 -71 90 -132 94 -135 3 -3 51 -72 107 -155 56 -82 169
-247 251 -365 82 -118 173 -250 203 -293 l53 -77 180 2 179 3 1 1555 c0 855
-1 1564 -3 1575 -3 19 -11 20 -220 19 -119 -1 -219 -2 -222 -3 -3 -1 -6 -498
-5 -1106 0 -608 -1 -1105 -2 -1105 -1 0 -37 51 -79 113 -43 61 -82 114 -86
115 -4 2 -8 8 -8 14 0 6 -13 27 -30 48 -16 21 -30 42 -30 48 0 6 -4 12 -8 14
-4 2 -48 62 -97 133 -49 72 -92 132 -97 133 -4 2 -8 7 -8 12 0 7 -312 465
-337 495 -5 6 -47 66 -93 135 -47 69 -88 130 -93 135 -7 8 -98 140 -197 285
-6 8 -57 83 -115 165 -57 83 -123 178 -147 213 -24 35 -59 84 -78 110 l-35 47
-170 2 -171 2 0 -1580z"/>
<path d="M9331 15140 c-4 -3 -7 -711 -7 -1575 l0 -1570 958 0 958 0 0 35 c1
49 1 348 1 388 l-1 32 -730 0 -730 0 0 63 c-2 239 1 821 3 824 2 1 323 4 713
5 l709 3 0 223 c0 123 -4 226 -9 229 -4 3 -325 5 -712 5 l-704 0 0 42 c-1 58
-1 763 0 806 l0 36 725 -1 c637 0 726 2 729 15 4 13 1 427 -3 440 0 3 -427 5
-947 5 -520 0 -949 -2 -953 -5z"/>
<path d="M11299 15140 c-4 -3 79 -269 185 -590 106 -322 237 -720 291 -885 53
-165 101 -309 106 -320 9 -23 40 -115 43 -130 1 -5 94 -288 206 -628 l205
-617 169 2 169 3 28 80 c100 294 152 443 159 460 5 11 18 49 30 85 61 178 79
230 271 770 48 135 44 128 56 94 7 -16 40 -108 73 -204 34 -96 70 -197 81
-225 10 -27 54 -153 99 -280 45 -126 84 -237 87 -245 3 -8 7 -19 9 -25 3 -11
87 -248 110 -310 8 -22 16 -44 18 -50 2 -5 6 -17 9 -25 4 -8 15 -40 25 -70
l19 -55 170 -3 169 -2 19 57 c10 32 20 60 20 63 1 3 4 12 8 20 3 8 119 359
257 780 139 421 279 846 312 945 33 99 61 185 62 190 1 6 11 37 23 70 63 174
343 1038 338 1043 -7 7 -454 9 -464 2 -6 -4 -56 -140 -66 -180 -2 -8 -18 -55
-35 -105 -17 -49 -34 -101 -36 -114 -3 -13 -10 -33 -15 -43 -6 -11 -21 -56
-35 -101 -13 -45 -27 -89 -31 -97 -3 -8 -7 -17 -8 -20 0 -3 -29 -90 -64 -195
-35 -104 -64 -194 -65 -200 -2 -5 -8 -21 -13 -35 -10 -23 -323 -967 -332
-1002 -1 -4 -13 -35 -27 -70 -13 -34 -24 -71 -24 -82 0 -40 -18 2 -85 194 -37
107 -98 285 -137 395 -161 462 -211 606 -250 720 -23 66 -44 125 -49 130 -7
10 -355 14 -362 4 -2 -2 -14 -33 -26 -69 -13 -36 -27 -74 -31 -85 -5 -11 -23
-63 -40 -115 -18 -52 -36 -104 -40 -115 -5 -11 -59 -164 -120 -340 -61 -176
-120 -342 -130 -370 -10 -27 -35 -97 -55 -155 -20 -58 -44 -125 -53 -150 -9
-25 -15 -49 -14 -55 2 -7 0 -7 -7 0 -5 6 -71 197 -146 425 -75 228 -140 424
-145 435 -4 11 -99 297 -210 635 -257 780 -246 750 -254 757 -8 8 -444 10
-457 3z"/>
<path d="M0 8957 l0 -2323 10899 0 10899 0 0 2323 0 2323 -10899 0 -10899 0 0
-2323z m6455 1593 c5 -8 11 -21 12 -27 6 -27 10 -39 23 -68 7 -16 14 -33 15
-37 2 -5 4 -11 5 -15 1 -5 2 -11 1 -15 0 -5 3 -8 9 -8 6 0 10 -9 10 -19 0 -11
5 -23 10 -26 6 -4 8 -11 5 -16 -4 -5 -1 -9 6 -9 7 0 9 -3 6 -7 -4 -3 0 -17 8
-30 9 -13 13 -23 11 -23 -3 0 20 -58 49 -130 29 -71 51 -130 47 -130 -4 0 -2
-4 3 -8 6 -4 16 -25 24 -47 8 -22 20 -55 28 -72 7 -18 12 -34 11 -35 -1 -2 5
-14 12 -28 8 -14 13 -31 12 -37 -2 -7 2 -13 8 -13 6 0 8 -4 5 -10 -3 -5 -1
-10 4 -10 6 0 10 -3 9 -7 -2 -8 38 -118 50 -137 3 -6 8 -20 9 -31 2 -10 7 -22
11 -25 4 -3 8 -9 9 -15 5 -24 29 -81 36 -86 5 -3 8 -9 7 -13 -1 -4 2 -19 8
-34 12 -32 19 -54 21 -65 0 -4 8 -21 16 -37 8 -16 15 -32 14 -35 0 -4 7 -17
15 -31 9 -13 14 -24 10 -24 -3 0 1 -11 10 -25 9 -14 14 -25 12 -25 -3 0 11
-37 30 -82 20 -46 37 -90 39 -100 2 -9 11 -30 19 -47 9 -17 13 -31 10 -31 -4
0 1 -9 11 -20 10 -11 15 -20 11 -20 -4 0 -1 -10 6 -22 6 -13 13 -27 14 -33 2
-11 107 -279 129 -330 36 -82 63 -155 58 -155 -3 0 -1 -6 5 -12 6 -7 28 -61
50 -120 23 -59 47 -122 55 -140 32 -74 52 -123 53 -130 1 -4 3 -11 4 -15 1 -5
2 -11 1 -15 0 -5 3 -8 9 -8 6 0 9 -3 8 -7 -1 -5 5 -21 12 -38 7 -16 14 -34 16
-40 10 -41 52 -134 57 -130 4 3 5 2 3 -1 -4 -5 13 -63 31 -104 3 -8 5 -18 5
-22 -1 -5 3 -8 10 -8 6 0 8 -3 5 -6 -3 -4 -1 -16 5 -28 7 -11 13 -25 14 -31 1
-5 7 -23 14 -40 6 -16 11 -32 11 -35 -1 -3 -109 -5 -242 -6 l-241 0 -16 33
c-9 18 -20 33 -24 33 -5 0 -7 4 -3 10 3 5 1 17 -4 27 -5 10 -17 38 -27 63 -10
25 -25 63 -35 85 -9 22 -54 132 -99 245 -45 113 -88 219 -96 235 -7 17 -23 55
-34 85 -12 30 -26 67 -32 81 l-11 26 -556 0 c-438 0 -558 -3 -568 -13 -18 -18
-53 -101 -46 -108 4 -3 1 -6 -5 -6 -7 0 -12 -7 -12 -15 0 -8 -4 -23 -9 -33 -8
-16 -33 -72 -36 -82 -2 -5 -18 -43 -47 -110 -6 -14 -14 -33 -20 -43 -5 -10 -6
-22 -3 -27 4 -6 2 -10 -2 -10 -7 0 -34 -58 -38 -80 0 -3 -6 -15 -13 -27 -7
-13 -10 -23 -7 -23 3 0 -2 -11 -11 -25 -9 -14 -13 -25 -9 -25 4 0 3 -6 -2 -12
-8 -11 -55 -122 -59 -138 -1 -6 -11 -31 -39 -96 l-22 -51 -114 -1 c-225 -3
-327 -3 -518 2 -174 3 -195 6 -204 22 -6 10 -25 33 -44 51 -18 19 -33 36 -33
39 0 3 -6 11 -12 18 -7 7 -26 30 -43 51 -39 50 -83 101 -117 137 -16 16 -28
31 -28 33 0 5 -21 32 -65 81 -49 56 -58 66 -98 117 -40 50 -76 92 -114 134
-13 13 -23 26 -23 28 0 7 -30 44 -67 82 -18 19 -33 38 -33 43 0 5 -8 15 -18
22 -9 7 -30 31 -46 52 -16 22 -44 54 -62 73 -18 18 -30 33 -27 33 2 0 -2 6 -9
13 -7 8 -24 28 -38 46 -14 18 -42 51 -62 72 -21 22 -38 44 -38 49 0 4 -3 10
-7 12 -5 2 -28 28 -53 58 -24 30 -57 67 -72 83 -27 27 -28 30 -28 142 l0 115
293 0 c160 0 319 4 352 10 78 13 145 32 145 43 0 4 4 6 9 2 5 -3 12 -1 16 5 3
5 13 10 21 10 17 0 20 2 93 67 52 47 107 117 113 144 2 7 8 19 14 26 24 25 48
157 47 252 0 51 -5 96 -9 100 -5 3 -10 19 -11 36 -3 34 -52 138 -85 178 -13
15 -34 41 -48 58 -40 49 -191 124 -270 134 -14 2 -38 7 -55 10 -40 9 -764 12
-778 3 -8 -5 -11 -391 -11 -1345 l-1 -1338 -215 -1 c-118 0 -220 1 -225 3 -15
5 -14 3141 2 3151 12 8 1132 5 1228 -3 120 -10 132 -12 141 -17 5 -3 25 -8 44
-12 19 -3 46 -9 60 -12 14 -3 33 -7 43 -7 9 -1 17 -4 17 -7 0 -3 17 -12 38
-19 57 -20 162 -73 162 -83 0 -4 5 -8 10 -8 6 0 18 -6 26 -12 8 -7 20 -17 27
-23 50 -41 87 -75 81 -75 -3 0 9 -16 28 -35 38 -40 42 -45 86 -107 30 -44 93
-160 98 -183 2 -5 12 -35 23 -66 22 -62 27 -82 47 -199 7 -41 7 -244 -1 -280
-3 -14 -9 -48 -14 -76 -19 -101 -65 -220 -113 -291 -15 -23 -28 -44 -28 -48 0
-10 -62 -84 -112 -135 -27 -26 -48 -47 -48 -45 0 2 -14 -10 -32 -27 -17 -16
-52 -41 -77 -56 -25 -14 -49 -31 -53 -37 -4 -5 -8 -6 -8 -1 0 4 -10 2 -22 -6
-39 -25 -221 -88 -253 -88 -22 0 -37 -26 -22 -39 8 -6 17 -9 20 -6 4 3 5 2 2
-1 -5 -7 19 -44 52 -79 10 -11 40 -47 68 -80 27 -33 62 -72 77 -87 15 -16 24
-28 20 -28 -4 0 5 -11 21 -24 15 -13 27 -26 27 -30 0 -6 36 -50 75 -91 11 -12
33 -38 48 -58 16 -21 38 -48 50 -61 26 -29 48 -54 107 -126 25 -30 49 -60 55
-66 5 -6 28 -32 50 -58 22 -26 52 -61 68 -79 15 -17 27 -34 27 -38 0 -4 7 -10
16 -13 8 -3 12 -2 9 4 -3 6 -2 10 3 10 6 0 13 12 18 28 11 38 17 55 39 107 21
49 77 189 79 200 2 6 8 24 15 40 7 17 12 32 13 35 0 3 4 11 10 18 6 6 7 12 3
12 -4 0 -2 7 5 15 7 8 9 15 4 15 -5 0 -4 4 2 8 14 9 59 133 56 151 -2 7 1 10
7 6 6 -3 11 -1 11 4 0 6 0 13 0 16 0 3 11 30 25 60 13 30 21 55 18 55 -3 0 -1
6 5 13 10 11 52 111 56 132 1 6 7 20 14 31 6 12 8 24 5 28 -3 3 -1 6 5 6 7 0
12 11 12 25 0 14 5 25 12 25 6 0 9 3 6 6 -5 4 66 190 108 281 7 17 14 36 14
42 0 7 9 28 19 49 10 20 18 39 17 42 0 3 7 26 18 50 10 25 24 59 31 75 37 86
43 104 37 109 -3 3 1 6 8 6 7 0 10 3 7 7 -4 3 -2 12 4 20 6 7 8 13 3 13 -5 0
-3 4 4 9 7 4 14 18 15 29 1 12 5 22 9 22 4 0 7 3 7 8 -1 4 0 10 1 15 1 4 3 10
5 15 1 4 10 25 20 47 9 22 19 47 20 55 2 8 4 17 5 20 1 3 2 8 1 13 0 4 3 7 7
7 7 0 30 58 37 90 0 3 6 15 13 28 7 12 10 22 7 22 -3 0 2 11 11 25 9 14 12 25
8 25 -5 0 -4 4 1 8 9 6 70 153 79 187 1 6 8 20 14 33 7 12 10 27 7 32 -3 6 -1
10 4 10 6 0 11 6 11 13 0 7 9 30 20 52 11 21 18 40 16 43 -2 2 2 15 9 29 8 15
11 31 8 36 -3 6 -1 7 5 3 7 -4 13 -1 14 6 2 25 5 33 22 70 9 21 16 40 16 43 0
3 8 25 18 48 49 112 55 129 55 142 0 8 4 15 8 15 5 0 6 6 4 13 -4 9 33 12 167
12 143 0 175 -3 183 -15z m2895 -23 c25 -2 54 -6 65 -10 11 -3 42 -8 69 -12
27 -3 52 -8 56 -10 4 -2 17 -6 31 -9 57 -12 72 -16 161 -47 91 -31 274 -117
350 -165 21 -13 38 -22 38 -19 0 3 8 -3 18 -12 10 -10 33 -29 52 -43 36 -26
159 -147 195 -191 59 -73 185 -297 201 -359 4 -17 53 -155 55 -155 0 0 3 -13
5 -29 3 -16 10 -38 16 -49 6 -12 6 -23 0 -29 -6 -6 -104 -10 -243 -11 -191 0
-234 2 -240 14 -4 8 -15 32 -23 54 -9 22 -23 53 -31 68 -8 16 -15 33 -15 38 0
15 -81 140 -112 174 -15 17 -28 34 -28 38 0 5 -5 5 -10 2 -6 -4 -9 -2 -8 4 4
13 -92 100 -109 101 -7 0 -13 4 -13 9 0 9 -196 109 -226 114 -11 2 -32 9 -49
16 -16 7 -41 14 -55 16 -14 2 -36 7 -50 13 -56 21 -189 33 -300 28 -139 -7
-167 -10 -175 -18 -4 -4 -13 -4 -20 -2 -7 3 -16 0 -20 -5 -3 -6 -11 -9 -16 -5
-5 3 -26 0 -47 -7 -20 -7 -41 -12 -45 -11 -4 1 -18 -3 -30 -10 -12 -7 -28 -13
-36 -14 -16 -3 -159 -72 -176 -85 -5 -5 -44 -35 -85 -67 -110 -86 -214 -199
-261 -283 -9 -16 -22 -36 -29 -44 -7 -8 -9 -15 -5 -15 5 0 0 -9 -10 -20 -10
-11 -15 -20 -12 -20 4 0 -2 -15 -12 -32 -23 -42 -68 -194 -77 -258 -2 -14 -6
-43 -10 -65 -14 -86 -5 -388 12 -416 2 -4 6 -24 10 -45 16 -105 110 -323 167
-388 9 -11 17 -24 17 -29 0 -6 13 -23 30 -38 16 -16 26 -29 22 -29 -4 0 33
-38 82 -85 50 -47 96 -85 103 -85 7 0 13 -4 13 -9 0 -22 240 -143 259 -132 2
2 7 -1 10 -7 6 -9 102 -34 201 -51 51 -9 316 -8 350 2 8 2 33 8 55 12 46 10
37 8 98 25 26 7 47 17 47 22 0 5 4 7 8 4 13 -7 139 55 221 109 75 48 216 183
226 216 4 10 11 19 16 19 6 0 8 4 5 9 -3 5 0 11 7 14 8 3 22 20 31 39 9 18 30
58 46 88 17 30 30 58 30 62 0 5 -261 8 -580 8 l-580 0 0 228 0 227 842 -2
c464 0 846 -2 850 -2 8 -1 6 -20 -18 -231 -12 -113 -14 -126 -25 -175 -13 -56
-47 -160 -63 -190 -6 -11 -10 -22 -11 -25 -1 -15 -51 -110 -57 -110 -5 0 -8
-9 -8 -20 0 -11 -4 -20 -10 -20 -5 0 -10 -7 -10 -15 0 -8 -4 -15 -10 -15 -5 0
-12 -11 -16 -25 -3 -14 -9 -25 -13 -25 -4 0 -15 -13 -24 -29 -34 -59 -187
-219 -272 -286 -27 -22 -51 -43 -53 -47 -2 -5 -8 -8 -14 -8 -8 0 -94 -55 -108
-70 -10 -11 -251 -130 -263 -130 -6 0 -25 -7 -40 -15 -26 -13 -90 -34 -126
-41 -7 -1 -35 -8 -61 -14 -133 -32 -311 -42 -487 -27 -40 3 -77 9 -83 12 -6 4
-29 8 -53 10 -23 1 -49 6 -57 9 -8 3 -24 7 -35 9 -33 6 -108 28 -140 42 -16 7
-63 25 -104 41 -41 15 -83 35 -95 44 -11 8 -34 22 -51 30 -16 8 -44 25 -61 37
-17 13 -34 23 -38 23 -4 0 -13 6 -21 13 -7 6 -33 28 -57 47 -47 38 -261 250
-253 250 3 0 -3 10 -15 22 -11 12 -20 28 -20 35 0 7 -4 13 -9 13 -4 0 -19 20
-32 45 -13 25 -27 45 -30 45 -3 0 -11 16 -19 35 -8 19 -17 35 -22 35 -4 0 -7
3 -6 8 1 4 -12 36 -28 72 -16 36 -36 84 -43 108 -8 23 -17 42 -21 42 -4 0 -6
10 -5 23 1 12 -1 27 -5 32 -4 6 -13 33 -19 60 -11 49 -15 70 -25 148 -3 21 -8
48 -12 60 -4 12 -6 38 -5 57 1 20 -2 48 -8 62 -7 18 -7 29 0 34 7 4 7 10 0 18
-6 7 -9 15 -7 17 3 2 7 63 10 134 3 72 8 141 11 155 3 14 7 39 10 55 9 52 14
79 25 125 31 129 114 350 131 350 5 0 8 3 7 8 -4 12 42 92 53 92 6 0 7 5 3 11
-3 6 -2 14 3 18 5 3 20 24 33 46 13 22 26 42 29 45 4 3 24 27 45 53 45 56 163
177 172 177 4 0 16 10 28 23 12 12 34 31 50 42 15 11 33 25 40 30 36 34 282
165 308 165 7 0 27 7 43 16 17 9 37 18 45 20 79 21 179 44 204 48 17 2 31 5
31 6 0 3 61 9 165 16 58 3 106 7 107 7 2 3 128 -2 183 -6z m7070 -7 c0 -3 35
-5 78 -5 l77 0 33 -45 c17 -25 38 -53 45 -64 6 -10 18 -24 25 -32 6 -7 12 -17
12 -22 0 -6 12 -23 28 -40 15 -17 28 -36 30 -44 2 -7 8 -14 13 -16 5 -2 9 -10
9 -17 0 -7 3 -15 8 -17 4 -1 32 -39 61 -83 30 -44 57 -82 60 -85 3 -3 12 -17
20 -32 8 -16 18 -28 23 -28 4 0 8 -7 8 -15 0 -9 7 -18 15 -21 8 -4 15 -12 15
-18 0 -7 9 -22 20 -34 11 -12 20 -24 20 -27 0 -9 53 -79 63 -83 4 -2 7 -10 7
-17 0 -7 13 -27 29 -44 17 -18 30 -34 30 -37 1 -5 33 -57 41 -64 9 -9 80 -120
80 -125 0 -3 9 -15 20 -27 11 -12 32 -40 47 -62 15 -23 30 -43 33 -46 3 -3 11
-17 18 -31 8 -15 25 -38 38 -52 13 -14 24 -30 24 -35 0 -4 8 -17 18 -28 9 -10
43 -58 75 -106 32 -49 63 -88 68 -88 6 0 8 -4 4 -10 -3 -5 3 -18 15 -30 11
-11 20 -22 20 -25 0 -10 75 -115 82 -115 4 0 8 -5 8 -11 0 -12 70 -112 82
-117 5 -2 8 -8 8 -14 0 -6 12 -27 28 -47 15 -20 32 -43 37 -52 18 -29 118
-174 124 -179 3 -3 12 -17 20 -32 8 -16 18 -28 23 -28 4 0 8 -7 8 -15 0 -8 9
-19 19 -24 19 -10 19 11 19 1078 0 600 2 1093 5 1098 6 9 434 10 443 0 9 -8 8
-122 0 -136 -4 -6 -4 -11 1 -11 7 0 9 -115 3 -145 -1 -5 -2 -12 -1 -15 6 -15
5 -90 -1 -90 -4 0 -5 -6 -2 -14 8 -21 10 -106 2 -106 -3 0 -3 -12 1 -27 4 -16
4 -40 0 -55 -4 -16 -5 -28 -1 -28 6 0 7 -245 2 -311 -1 -13 -1 -26 0 -29 5
-15 4 -100 -1 -100 -4 0 -3 -18 1 -39 4 -22 4 -45 0 -51 -4 -7 -4 -24 -1 -39
4 -14 4 -40 0 -58 -3 -18 -4 -34 -2 -37 8 -8 9 -96 2 -96 -4 0 -3 -18 1 -39 4
-22 4 -45 0 -51 -4 -7 -4 -24 -1 -39 4 -14 4 -40 0 -58 -3 -18 -4 -34 -2 -37
8 -8 9 -96 2 -96 -4 0 -3 -18 1 -39 4 -22 4 -45 0 -51 -4 -7 -4 -24 -1 -39 4
-14 4 -40 0 -58 -3 -18 -4 -34 -2 -37 8 -8 9 -96 2 -96 -4 0 -3 -18 1 -39 4
-22 4 -45 -1 -52 -4 -7 -6 -16 -3 -21 4 -6 6 -139 4 -238 -1 -8 1 -34 2 -58 2
-23 0 -42 -4 -42 -4 0 -5 -6 -2 -14 8 -21 10 -106 2 -106 -3 0 -3 -12 1 -27 4
-16 4 -40 0 -55 -4 -16 -5 -28 -1 -28 8 0 6 -85 -2 -106 -3 -8 -2 -14 2 -14 6
0 7 -65 2 -80 -2 -3 -1 -9 0 -15 5 -23 2 -184 -5 -194 -3 -6 -1 -11 6 -11 8 0
9 -3 4 -9 -9 -9 -38 -12 -107 -11 -46 0 -107 0 -148 -1 -104 -3 -116 0 -131
28 -7 12 -16 23 -21 23 -4 0 -8 7 -8 15 0 8 -4 15 -10 15 -5 0 -10 7 -10 15 0
8 -4 15 -10 15 -5 0 -10 7 -10 15 0 7 -8 19 -17 24 -10 6 -14 11 -9 11 5 0 1
9 -9 20 -10 11 -23 28 -29 38 -39 64 -59 92 -68 92 -5 0 -6 5 -3 10 3 6 -1 13
-9 16 -9 3 -13 10 -10 15 3 5 -2 12 -10 15 -9 3 -16 13 -16 20 0 8 -7 17 -15
20 -8 4 -13 9 -10 14 2 4 -3 16 -13 26 -10 10 -32 43 -51 72 -18 28 -37 52
-43 52 -5 0 -6 5 -3 10 3 6 1 10 -4 10 -6 0 -11 5 -11 11 0 10 -41 69 -67 97
-6 6 -15 21 -18 32 -3 11 -10 20 -15 20 -5 0 -11 8 -14 18 -3 9 -17 29 -31 45
-14 15 -23 27 -20 27 3 0 -12 24 -33 53 -21 28 -47 67 -57 85 -11 17 -23 32
-27 32 -4 0 -8 6 -8 13 0 10 -13 28 -60 84 -5 7 -10 17 -10 23 0 6 -7 13 -15
16 -8 4 -12 10 -9 15 3 5 1 9 -5 9 -6 0 -13 11 -17 25 -3 14 -10 25 -14 25 -5
0 -19 18 -31 40 -13 22 -26 40 -31 40 -4 0 -8 6 -8 13 0 7 -13 27 -29 45 -17
17 -27 32 -23 32 4 0 -2 7 -12 15 -11 8 -16 15 -10 15 5 0 2 6 -7 13 -9 7 -16
14 -17 17 -3 21 -16 39 -23 34 -5 -3 -8 -2 -7 3 1 4 -11 28 -27 52 -17 24 -37
54 -45 67 -52 78 -143 206 -158 220 -9 10 -16 19 -14 21 3 4 -24 46 -70 108
-21 28 -38 56 -38 63 0 6 -3 12 -8 12 -4 0 -18 18 -32 40 -14 22 -28 40 -32
40 -5 0 -8 7 -8 15 0 8 -4 15 -10 15 -5 0 -10 7 -10 15 0 8 -6 15 -14 15 -13
0 -19 -45 -17 -142 1 -55 1 -129 0 -188 0 -25 -1 -49 0 -55 1 -22 1 -118 0
-185 0 -25 -1 -49 0 -55 1 -22 1 -118 0 -185 0 -25 -1 -49 0 -55 1 -22 1 -118
0 -185 0 -25 -1 -49 0 -55 1 -22 1 -118 0 -185 0 -25 -1 -49 0 -55 1 -22 1
-118 0 -185 0 -25 -1 -49 0 -55 1 -13 1 -96 1 -115 -1 -8 -1 -87 0 -175 0 -88
1 -191 0 -228 l0 -68 -37 1 c-21 0 -60 0 -88 0 -27 0 -57 1 -65 1 -8 0 -68 -1
-134 -1 -65 -1 -120 1 -123 4 -6 6 -6 3143 0 3153 6 9 187 11 187 3z m2367 -2
c115 6 133 7 133 1 0 -3 22 -3 50 1 27 3 56 2 65 -2 8 -5 15 -5 15 -1 0 4 56
8 125 8 69 0 125 -4 125 -8 0 -5 4 -5 10 -2 10 6 249 8 293 2 15 -2 27 -1 27
2 0 8 148 6 156 -2 3 -3 12 -3 20 0 22 8 454 9 454 0 0 -5 4 -5 10 -2 10 6
249 8 293 2 15 -2 27 -1 27 2 0 5 128 6 155 1 6 -1 15 -1 20 0 22 4 296 2 301
-3 10 -10 6 -450 -4 -456 -6 -3 -219 -6 -474 -6 l-465 1 1 -138 c1 -88 -2
-138 -9 -138 -7 0 -7 -3 0 -8 13 -9 13 -145 0 -154 -6 -5 -6 -8 0 -8 14 0 14
-462 0 -472 -7 -5 -7 -8 0 -8 13 0 13 -150 0 -150 -7 0 -7 -3 0 -8 14 -10 14
-464 0 -474 -6 -5 -7 -8 0 -8 13 0 13 -150 0 -150 -7 0 -7 -3 0 -8 14 -10 14
-464 0 -474 -6 -5 -7 -8 0 -8 13 0 13 -150 0 -150 -7 0 -7 -3 0 -8 10 -7 15
-331 5 -333 -3 -1 -78 -2 -168 -3 -102 0 -162 3 -162 9 0 7 -3 7 -8 0 -4 -5
-31 -10 -59 -11 l-53 -1 0 101 c-1 56 -1 664 -1 1351 l0 1251 -475 -1 c-415 0
-474 2 -475 15 -4 112 -3 150 4 150 5 0 5 5 1 12 -9 15 -10 71 -1 86 4 6 4 13
0 15 -11 7 -8 170 2 188 5 7 10 9 12 4 2 -6 24 -9 50 -7z m-16202 -10 c8 -7 9
-434 2 -445 -3 -5 -323 -8 -711 -8 l-706 1 0 -442 0 -443 593 0 c325 0 609 0
630 -1 l37 0 0 -230 0 -230 -630 0 -630 0 -2 -672 -3 -672 -218 0 c-121 -1
-221 3 -224 8 -9 13 -9 316 -1 316 4 0 5 6 2 14 -9 24 -10 127 -2 133 5 2 5 9
2 15 -9 15 -11 318 -2 318 4 0 5 7 2 15 -10 25 -11 109 -2 128 5 9 5 17 1 17
-7 0 -8 85 -4 210 1 20 2 298 1 335 -4 296 -4 415 2 415 4 0 5 7 2 15 -10 25
-11 109 -2 128 5 9 5 17 1 17 -4 0 -8 15 -8 34 0 19 4 32 9 29 5 -4 6 0 1 7
-10 16 -13 410 -3 410 4 0 5 6 2 14 -9 24 -10 127 -2 133 5 2 5 9 2 15 -5 8
-9 386 -5 418 1 7 1859 5 1866 -2z m8740 -8 c13 -7 22 -16 20 -20 -3 -4 5 -18
18 -32 12 -13 23 -27 24 -31 6 -18 69 -107 76 -107 4 0 6 -4 2 -9 -3 -5 5 -17
17 -26 13 -8 22 -19 21 -23 -2 -11 30 -62 39 -62 4 0 8 -6 8 -13 0 -7 9 -23
20 -35 11 -12 20 -26 20 -32 0 -5 5 -10 10 -10 6 0 10 -7 10 -15 0 -8 3 -15 8
-15 4 0 20 -23 37 -50 16 -28 33 -50 37 -50 4 0 8 -4 8 -10 0 -11 91 -144 102
-148 4 -2 8 -9 8 -14 0 -6 17 -34 38 -62 20 -28 44 -63 51 -78 8 -15 18 -25
23 -22 5 3 7 1 6 -4 -2 -5 5 -20 15 -33 16 -23 65 -96 124 -184 14 -22 30 -41
34 -43 5 -2 9 -9 9 -16 0 -7 8 -21 18 -32 9 -10 23 -31 31 -46 8 -16 18 -28
23 -28 4 0 8 -7 8 -15 0 -9 7 -18 15 -21 8 -4 15 -12 15 -18 0 -7 8 -21 18
-32 9 -10 23 -31 31 -46 8 -16 18 -28 23 -28 4 0 8 -5 8 -10 0 -6 13 -27 28
-49 23 -31 30 -36 40 -24 22 23 142 203 142 212 0 5 3 11 8 13 12 5 64 78 55
78 -4 0 -3 4 3 8 6 4 54 70 106 147 52 77 120 177 151 222 31 46 57 87 57 93
0 5 5 10 10 10 6 0 10 7 10 15 0 8 3 15 8 15 4 0 20 20 35 45 16 25 34 45 40
45 5 0 7 3 4 7 -4 3 9 28 28 55 19 26 35 52 35 56 0 5 9 17 20 27 11 10 18 20
16 22 -2 2 7 16 20 30 13 14 24 30 24 35 0 5 7 16 15 24 16 16 204 294 220
325 5 10 17 19 25 20 46 3 327 4 340 1 13 -3 15 -184 15 -1565 -1 -859 -4
-1567 -7 -1572 -5 -8 -325 -12 -438 -6 -15 1 -16 54 -10 341 1 56 2 499 1 520
0 8 0 116 0 240 1 124 1 232 0 240 0 8 0 116 0 240 1 124 1 232 0 240 0 8 -1
90 -1 182 0 92 -5 170 -9 173 -12 7 -44 -43 -36 -56 4 -5 1 -8 -6 -7 -7 2 -17
-6 -23 -17 -22 -39 -111 -170 -118 -173 -5 -2 -8 -8 -8 -13 0 -6 -9 -19 -20
-31 -11 -12 -20 -28 -20 -35 0 -7 -4 -13 -10 -13 -5 0 -10 -7 -10 -15 0 -8 -4
-15 -10 -15 -5 0 -10 -7 -10 -15 0 -8 -3 -15 -7 -15 -8 0 -46 -62 -43 -69 1
-2 -2 -7 -7 -10 -10 -7 -58 -72 -64 -86 -11 -26 -83 -125 -91 -125 -6 0 -8 -6
-5 -14 3 -8 3 -16 -1 -18 -10 -4 -62 -75 -62 -84 0 -4 -8 -17 -19 -28 -26 -29
-146 -210 -142 -215 1 -2 -4 -8 -13 -13 -9 -5 -16 -16 -16 -23 0 -8 -4 -15
-10 -15 -5 0 -10 -5 -10 -10 0 -10 -8 -22 -37 -55 -9 -9 -34 -13 -75 -13 -35
0 -67 -1 -73 -2 -5 -1 -14 -1 -20 0 -5 1 -30 2 -56 2 l-45 -1 -59 90 c-32 49
-62 89 -67 89 -4 0 -8 7 -8 17 0 9 -7 23 -15 32 -8 9 -45 61 -82 116 -36 55
-84 126 -105 157 -21 31 -38 61 -38 65 0 5 -9 15 -20 23 -11 8 -20 20 -20 27
0 7 -4 13 -10 13 -5 0 -10 6 -10 13 0 7 -12 28 -28 47 -15 19 -34 47 -41 63
-8 15 -18 27 -23 27 -4 0 -8 5 -8 10 0 6 -5 16 -10 23 -22 25 -60 83 -69 104
-6 12 -18 26 -28 32 -10 6 -13 11 -8 11 6 0 5 3 -1 8 -6 4 -17 19 -25 33 -31
57 -138 209 -141 202 -3 -4 -4 -83 -4 -176 1 -105 -3 -167 -9 -167 -7 0 -7 -3
0 -8 12 -9 14 -382 2 -382 -4 0 -5 -6 0 -12 10 -17 12 -159 2 -179 -5 -9 -5
-20 -1 -23 10 -11 10 -106 0 -106 -5 0 -6 -6 -1 -12 10 -17 11 -308 0 -308 -4
0 -5 -6 0 -12 10 -17 12 -159 2 -179 -5 -9 -5 -20 -1 -23 10 -11 10 -106 -1
-106 -6 0 -6 -5 0 -12 7 -10 11 -458 4 -488 -1 -3 -102 -5 -226 -5 l-225 0 0
40 c-1 22 -2 730 -3 1572 -2 1320 0 1533 12 1535 8 2 88 3 178 2 115 0 170 -4
188 -14z m4696 -5 c0 -23 0 -315 0 -390 l-1 -50 -725 1 c-503 0 -725 -3 -726
-10 -1 -6 -2 -31 -3 -56 -1 -25 -5 -51 -9 -57 -5 -7 -5 -13 0 -13 4 0 8 -36 8
-80 0 -44 -4 -80 -9 -80 -5 0 -4 -6 1 -12 11 -15 11 -98 0 -115 -4 -6 -4 -14
0 -16 10 -6 10 -118 0 -134 -4 -6 -4 -14 1 -16 10 -7 9 -128 -1 -144 -5 -7 -4
-13 0 -13 5 0 8 -30 8 -67 l0 -68 695 -2 c382 -1 703 -2 713 -2 16 -1 17 -19
17 -231 l0 -230 -712 -2 -713 -3 -1 -35 c-1 -19 -2 -39 -4 -45 -1 -5 -1 -12 0
-15 7 -15 4 -182 -3 -187 -4 -2 -4 -10 1 -16 7 -10 9 -171 2 -179 -5 -7 -6
-49 -1 -53 9 -5 7 -178 -2 -192 -4 -6 -4 -14 1 -17 4 -2 7 -36 7 -74 l0 -70
732 1 733 2 0 -227 c0 -126 -3 -228 -7 -229 -5 -1 -437 -2 -961 -2 -840 -2
-952 0 -953 13 0 21 0 3092 0 3112 1 9 9 18 18 20 9 2 439 3 955 3 931 0 938
0 939 -20z"/>
<path d="M6284 9792 c-6 -4 -21 -38 -34 -77 -12 -38 -31 -89 -42 -113 -10 -23
-19 -53 -20 -67 -1 -14 -5 -25 -9 -25 -7 0 -22 -47 -17 -53 2 -2 -3 -11 -11
-20 -7 -10 -11 -17 -7 -17 4 0 0 -13 -9 -30 -9 -16 -13 -30 -10 -30 3 0 -2
-11 -11 -25 -9 -14 -13 -25 -9 -25 4 0 2 -7 -5 -15 -7 -8 -9 -15 -5 -15 4 0 3
-6 -2 -12 -10 -13 -35 -80 -39 -108 -2 -8 -7 -23 -13 -35 -23 -46 -41 -98 -36
-105 3 -5 1 -10 -5 -12 -5 -1 -11 -12 -13 -23 -2 -11 -9 -31 -14 -45 -15 -35
-73 -203 -73 -210 0 -7 748 -5 755 2 8 8 -27 113 -56 170 -5 10 -9 29 -9 43 0
14 -4 25 -10 25 -5 0 -10 10 -10 23 0 13 -3 27 -7 31 -5 4 -8 11 -8 14 -1 16
-28 88 -38 100 -5 6 -6 12 -2 12 4 0 2 7 -5 15 -7 8 -10 15 -7 15 3 0 -1 17
-10 38 -8 20 -15 39 -15 42 0 3 -4 15 -9 28 -5 13 -12 35 -15 50 -4 15 -11 29
-15 32 -4 3 -10 17 -12 31 -9 46 -89 274 -98 277 -5 2 -6 8 -3 13 3 6 0 17 -8
26 -7 9 -12 18 -10 20 1 1 2 4 1 6 0 1 -3 13 -5 26 -5 30 -7 32 -20 23z"/>
</g>
</svg>
